<svg xmlns="http://www.w3.org/2000/svg" width="53.261" height="39.946" viewBox="0 0 53.261 39.946"><defs><style>.a{fill:#ec4f1b;}</style></defs><path class="a" d="M52.013,37.789a1.252,1.252,0,0,1,1.248,1.248V43.2a1.252,1.252,0,0,1-1.248,1.248H1.248A1.252,1.252,0,0,1,0,43.2V5.748A1.252,1.252,0,0,1,1.248,4.5H5.409A1.252,1.252,0,0,1,6.658,5.748v32.04ZM38.771,14.435,29.96,20.312,21.086,8.484a1.25,1.25,0,0,0-2.07.1L9.987,23.641V34.46H49.933L40.581,14.923a1.249,1.249,0,0,0-1.81-.489Z" transform="translate(0 -4.5)"/></svg>