<svg xmlns="http://www.w3.org/2000/svg" width="62.072" height="62.072" viewBox="0 0 62.072 62.072"><defs><style>.a{opacity:0.324;}.b{fill:#ec4f1b;}</style></defs><g><path class="b" d="M257.464,241.193a13.758,13.758,0,0,1-9.759-4.009,13.561,13.561,0,0,1-4.036-9.69,1.819,1.819,0,0,0-3.637,0,13.561,13.561,0,0,1-4.036,9.69,13.758,13.758,0,0,1-9.759,4.009,1.819,1.819,0,0,0,0,3.637,13.784,13.784,0,0,1,13.8,13.739,1.819,1.819,0,1,0,3.637,0,13.783,13.783,0,0,1,13.8-13.739,1.819,1.819,0,1,0,0-3.637Zm0,0" transform="translate(-197.211 -198.316)"/><path class="b" d="M24.882,153.316a9.689,9.689,0,0,1-9.713-9.642,1.819,1.819,0,1,0-3.637,0,9.689,9.689,0,0,1-9.713,9.642,1.819,1.819,0,0,0,0,3.637,9.7,9.7,0,0,1,9.713,9.672,1.819,1.819,0,1,0,3.637,0,9.7,9.7,0,0,1,9.713-9.672,1.819,1.819,0,0,0,0-3.637Zm0,0" transform="translate(0 -124.658)"/><path class="b" d="M216.455,12.567a7.124,7.124,0,0,1,7.143,7.088,1.819,1.819,0,0,0,3.637,0,7.135,7.135,0,0,1,7.143-7.111,1.819,1.819,0,1,0,0-3.637,7.124,7.124,0,0,1-7.143-7.088,1.819,1.819,0,0,0-3.637,0,7.135,7.135,0,0,1-7.143,7.111,1.819,1.819,0,1,0,0,3.637Zm0,0" transform="translate(-188.615)"/></g></svg>