<?xml version="1.0" encoding="utf-8"?>
<!-- Generator: Adobe Illustrator 16.0.0, SVG Export Plug-In . SVG Version: 6.00 Build 0)  -->
<!DOCTYPE svg PUBLIC "-//W3C//DTD SVG 1.1//EN" "http://www.w3.org/Graphics/SVG/1.1/DTD/svg11.dtd">
<svg version="1.1" id="Layer_1" xmlns="http://www.w3.org/2000/svg" xmlns:xlink="http://www.w3.org/1999/xlink" x="0px" y="0px"
	 width="164px" height="38px" viewBox="0 0 164 38" enable-background="new 0 0 164 38" xml:space="preserve">
<g>
	<path fill="#FFFFFF" d="M56.315,16.193c-0.497,0.698-0.942,1.046-1.338,1.046c-0.229,0-0.554-0.143-0.975-0.425
		c-0.537-0.438-1.251-0.657-2.143-0.657c-0.83,0.002-1.646,0.291-2.449,0.873c-0.382,0.284-0.702,0.684-0.957,1.2
		c-0.255,0.515-0.38,1.1-0.38,1.751c0,0.65,0.128,1.234,0.382,1.75c0.257,0.516,0.582,0.922,0.977,1.217
		c0.778,0.568,1.59,0.852,2.432,0.852c0.396,0,0.768-0.051,1.118-0.155c0.35-0.104,0.603-0.208,0.755-0.312l0.344-0.251
		c0.435-0.257,0.74-0.388,0.92-0.388c0.394,0,0.822,0.362,1.281,1.084c0.28,0.45,0.422,0.813,0.422,1.082
		c0,0.271-0.087,0.498-0.258,0.678c-0.173,0.181-0.373,0.344-0.603,0.484c-0.229,0.143-0.449,0.276-0.659,0.408
		c-0.21,0.127-0.641,0.294-1.292,0.502c-0.65,0.207-1.278,0.309-1.884,0.309S50.79,27.16,50.172,27
		c-0.619-0.159-1.257-0.43-1.912-0.811c-0.657-0.38-1.248-0.844-1.771-1.391c-0.522-0.549-0.952-1.251-1.292-2.107
		c-0.338-0.859-0.507-1.791-0.507-2.796c-0.003-1.005,0.165-1.919,0.495-2.737c0.332-0.821,0.755-1.497,1.271-2.033
		c0.517-0.534,1.105-0.983,1.768-1.343c1.249-0.698,2.506-1.047,3.769-1.047c0.6-0.002,1.207,0.092,1.827,0.279
		c0.617,0.185,1.086,0.375,1.405,0.568l0.46,0.272c0.23,0.141,0.408,0.257,0.536,0.348c0.331,0.271,0.497,0.577,0.497,0.918
		C56.717,15.461,56.585,15.82,56.315,16.193L56.315,16.193z"/>
	<path fill="#FFFFFF" d="M66.111,19.613c-0.242,0.488-0.592,0.733-1.053,0.735c-0.229,0-0.447-0.054-0.659-0.155
		c-0.211-0.102-0.487-0.152-0.832-0.152c-0.344,0-0.667,0.121-0.966,0.366c-0.3,0.245-0.449,0.542-0.449,0.89l0.002,4.064
		c0.001,0.295-0.009,0.52-0.028,0.666c-0.018,0.147-0.078,0.32-0.181,0.514c-0.191,0.336-0.688,0.502-1.491,0.502
		c-0.613,0.002-1.052-0.107-1.319-0.328c-0.205-0.18-0.321-0.458-0.345-0.83c0-0.129,0-0.318,0-0.563l-0.007-6.789
		c0-0.296,0.011-0.52,0.03-0.667c0.018-0.149,0.072-0.313,0.161-0.494c0.18-0.348,0.676-0.521,1.492-0.523
		c0.765,0,1.243,0.147,1.434,0.445c0.142,0.206,0.213,0.42,0.213,0.637c0.062-0.09,0.156-0.2,0.275-0.328
		c0.121-0.13,0.381-0.304,0.776-0.522c0.394-0.22,0.74-0.33,1.041-0.33c0.3,0,0.551,0.017,0.757,0.048
		c0.204,0.033,0.427,0.086,0.669,0.165c0.242,0.077,0.442,0.21,0.603,0.396c0.159,0.186,0.24,0.487,0.24,0.9
		C66.475,18.67,66.353,19.123,66.111,19.613L66.111,19.613z"/>
	<path fill="#FFFFFF" d="M75.542,23.805c-0.203,0-0.458,0.072-0.764,0.213l-0.21,0.077c-0.42,0.156-1.001,0.233-1.74,0.233
		c-0.42,0-0.842-0.121-1.263-0.367c-0.422-0.242-0.632-0.547-0.632-0.907l4.533-0.004c0.472,0,0.903-0.19,1.29-0.572
		c0.389-0.379,0.584-0.965,0.584-1.759c-0.002-0.793-0.219-1.525-0.653-2.195c-0.829-1.265-2.131-1.895-3.902-1.894
		c-1.556,0-2.854,0.488-3.892,1.463c-1.039,0.974-1.559,2.274-1.557,3.899c0,1.29,0.402,2.456,1.207,3.501
		c0.408,0.541,0.979,0.977,1.712,1.304c0.734,0.329,1.572,0.494,2.517,0.491c2.716-0.001,4.074-0.574,4.074-1.723
		c0-0.244-0.085-0.541-0.25-0.89C76.301,24.095,75.952,23.805,75.542,23.805z M71.506,20.199c0.406-0.341,0.817-0.514,1.233-0.514
		c0.414,0,0.733,0.091,0.956,0.271c0.225,0.181,0.336,0.419,0.336,0.716c0,0.414-0.243,0.617-0.727,0.619h-2.41
		C70.895,20.905,71.098,20.541,71.506,20.199z"/>
	<path fill="#FFFFFF" d="M88.355,18.537c0-0.298-0.01-0.52-0.029-0.668c-0.019-0.149-0.074-0.32-0.173-0.512
		c-0.095-0.194-0.265-0.329-0.506-0.406c-0.243-0.079-0.612-0.118-1.109-0.118c-0.932,0.002-1.434,0.364-1.512,1.085
		c-0.088-0.128-0.204-0.261-0.343-0.396c-0.142-0.134-0.39-0.281-0.747-0.436c-0.356-0.154-0.753-0.231-1.187-0.231
		c-1.135,0.001-2.175,0.507-3.126,1.521c-0.949,1.014-1.424,2.194-1.423,3.542c0,1.348,0.474,2.531,1.419,3.547
		c0.942,1.02,1.966,1.529,3.068,1.527c1.104,0,1.892-0.342,2.363-1.025c0.038,0.336,0.175,0.59,0.41,0.762
		c0.237,0.175,0.702,0.262,1.397,0.262c0.694,0,1.131-0.166,1.31-0.504c0.088-0.192,0.143-0.363,0.162-0.514
		c0.021-0.146,0.027-0.369,0.027-0.666L88.355,18.537z M84.427,23.085c-0.312,0.347-0.702,0.521-1.174,0.521
		c-0.473,0-0.875-0.171-1.206-0.512c-0.332-0.341-0.498-0.726-0.498-1.151c0-0.424,0.155-0.816,0.469-1.18
		c0.312-0.36,0.72-0.541,1.223-0.541c0.504,0,0.906,0.179,1.206,0.539c0.3,0.363,0.448,0.751,0.448,1.17
		C84.895,22.352,84.74,22.736,84.427,23.085z"/>
	<path fill="#FFFFFF" d="M97.843,20.061c-0.189,0.09-0.358,0.143-0.506,0.162c-0.146,0.021-0.366,0.031-0.66,0.031l-1.243-0.078
		l0.002,2.67c0,0.35,0.056,0.6,0.163,0.756c0.109,0.154,0.313,0.23,0.611,0.23c0.301,0,0.529,0.01,0.688,0.027
		c0.16,0.02,0.329,0.082,0.508,0.185c0.292,0.169,0.44,0.6,0.44,1.298c0,0.811-0.179,1.307-0.533,1.487
		c-0.193,0.091-0.362,0.147-0.508,0.165c-0.146,0.02-0.36,0.029-0.641,0.029c-1.327,0.002-2.335-0.3-3.022-0.908
		c-0.688-0.605-1.034-1.629-1.036-3.074l-0.002-2.863c-0.24,0.039-0.501,0.059-0.783,0.059c-0.28,0-0.515-0.109-0.697-0.327
		c-0.187-0.22-0.277-0.594-0.277-1.123s0.029-0.912,0.095-1.151c0.062-0.239,0.152-0.409,0.266-0.511
		c0.204-0.169,0.461-0.253,0.767-0.253l0.63,0.077v-1.991c0-0.297,0.01-0.516,0.028-0.659c0.019-0.141,0.079-0.296,0.181-0.462
		c0.167-0.323,0.657-0.485,1.473-0.485c0.867,0,1.384,0.238,1.549,0.715c0.064,0.208,0.098,0.535,0.098,0.986l0.002,1.896
		c0.559-0.051,0.984-0.076,1.271-0.078c0.286,0,0.504,0.01,0.649,0.029c0.148,0.02,0.316,0.081,0.508,0.185
		c0.333,0.168,0.497,0.665,0.497,1.489C98.358,19.381,98.188,19.878,97.843,20.061L97.843,20.061z"/>
	<path fill="#FFFFFF" d="M108.88,18.09c-1.059-1-2.276-1.5-3.654-1.498c-1.378,0-2.602,0.504-3.672,1.51
		c-1.072,1.007-1.605,2.284-1.605,3.832c0.002,1.031,0.272,1.957,0.815,2.776c0.542,0.817,1.21,1.437,2,1.854
		c0.79,0.42,1.606,0.629,2.448,0.627c0.843,0,1.655-0.195,2.438-0.59c0.784-0.394,1.451-1.006,1.998-1.839
		c0.549-0.833,0.82-1.784,0.82-2.854C110.467,20.362,109.938,19.088,108.88,18.09z M106.453,23.303
		c-0.42,0.324-0.841,0.486-1.261,0.486c-0.421,0-0.837-0.159-1.245-0.475c-0.409-0.315-0.611-0.786-0.611-1.411
		c0-0.626,0.195-1.101,0.59-1.422c0.396-0.323,0.824-0.483,1.282-0.483c0.459,0,0.886,0.154,1.281,0.463
		c0.396,0.309,0.593,0.779,0.593,1.41C107.084,22.505,106.874,22.98,106.453,23.303z"/>
	<path fill="#FFFFFF" d="M119.899,19.584c-0.244,0.488-0.595,0.732-1.054,0.732c-0.229,0-0.449-0.051-0.66-0.154
		c-0.21-0.102-0.488-0.152-0.832-0.152c-0.344,0.002-0.666,0.123-0.966,0.365c-0.298,0.248-0.448,0.544-0.448,0.893l0.002,4.063
		c0,0.298-0.009,0.52-0.028,0.668c-0.018,0.146-0.078,0.319-0.18,0.512c-0.193,0.335-0.688,0.504-1.492,0.504
		c-0.614,0-1.053-0.107-1.319-0.327c-0.206-0.181-0.321-0.459-0.345-0.833c0-0.128,0-0.316,0-0.561l-0.006-6.79
		c0-0.297,0.01-0.519,0.027-0.667c0.02-0.15,0.074-0.314,0.162-0.495c0.181-0.348,0.677-0.521,1.492-0.521
		c0.767,0,1.245,0.147,1.436,0.443c0.141,0.208,0.209,0.419,0.211,0.639c0.063-0.09,0.154-0.2,0.277-0.331
		c0.121-0.128,0.38-0.302,0.775-0.522c0.395-0.218,0.741-0.328,1.041-0.328s0.551,0.017,0.757,0.048
		c0.204,0.033,0.428,0.087,0.668,0.164c0.241,0.077,0.443,0.208,0.604,0.396c0.158,0.188,0.238,0.487,0.238,0.899
		C120.261,18.641,120.14,19.092,119.899,19.584L119.899,19.584z"/>
	<path fill="#FFFFFF" d="M133.797,25.949c-0.018,0.146-0.077,0.317-0.18,0.512c-0.181,0.349-0.677,0.523-1.492,0.523
		c-0.892,0.002-1.415-0.237-1.569-0.716c-0.075-0.218-0.114-0.553-0.114-1.006l-0.002-3.927l-5.069,0.004l0.002,3.946
		c0,0.296-0.008,0.521-0.029,0.667c-0.02,0.148-0.079,0.319-0.181,0.514c-0.179,0.349-0.676,0.521-1.491,0.521
		c-0.893,0.002-1.416-0.236-1.569-0.714c-0.078-0.22-0.115-0.555-0.115-1.005l-0.006-10.737c0-0.296,0.01-0.52,0.027-0.667
		c0.02-0.148,0.081-0.319,0.183-0.513c0.177-0.348,0.674-0.522,1.491-0.522c0.893-0.001,1.421,0.236,1.589,0.714
		c0.062,0.22,0.094,0.555,0.096,1.006l0.002,3.946l5.069-0.002l-0.005-3.967c0-0.296,0.011-0.52,0.03-0.667
		c0.02-0.147,0.08-0.318,0.183-0.513c0.1-0.193,0.271-0.329,0.516-0.406c0.242-0.077,0.548-0.117,0.917-0.117
		c0.37,0,0.663,0.031,0.88,0.096c0.216,0.064,0.382,0.142,0.498,0.231c0.113,0.09,0.204,0.22,0.267,0.389
		c0.065,0.218,0.099,0.552,0.099,1.005l0.003,10.735C133.826,25.576,133.817,25.801,133.797,25.949L133.797,25.949z"/>
	<path fill="#FFFFFF" d="M139.113,25.984c-0.017,0.148-0.078,0.319-0.18,0.514c-0.165,0.335-0.657,0.502-1.473,0.502
		c-0.804,0.002-1.293-0.173-1.474-0.52c-0.089-0.194-0.144-0.363-0.163-0.504s-0.027-0.369-0.029-0.676l-0.002-6.791
		c0-0.297,0.01-0.52,0.027-0.667c0.02-0.149,0.074-0.321,0.163-0.515c0.179-0.334,0.674-0.502,1.491-0.502
		c0.613,0,1.045,0.109,1.302,0.33c0.216,0.18,0.331,0.457,0.344,0.831c0.013,0.127,0.02,0.315,0.02,0.561l0.006,6.771
		C139.146,25.614,139.135,25.838,139.113,25.984L139.113,25.984z"/>
	<path fill="#FFFFFF" d="M138.938,14.92c-0.096,0.187-0.266,0.318-0.506,0.396c-0.243,0.077-0.566,0.116-0.966,0.116
		c-0.403,0-0.727-0.037-0.967-0.114c-0.243-0.078-0.412-0.212-0.509-0.406c-0.096-0.193-0.152-0.365-0.172-0.513
		c-0.018-0.148-0.027-0.372-0.027-0.667c-0.002-0.298,0.008-0.52,0.027-0.667c0.019-0.148,0.072-0.314,0.163-0.495
		c0.178-0.348,0.676-0.522,1.489-0.522c0.804,0,1.288,0.174,1.454,0.52c0.103,0.194,0.163,0.365,0.183,0.514
		s0.029,0.371,0.029,0.667c0,0.298-0.01,0.52-0.029,0.668C139.09,14.565,139.033,14.732,138.938,14.92L138.938,14.92z"/>
	<path fill="#FFFFFF" d="M151.554,19.37l-3.956,6.87c-0.125,0.219-0.331,0.416-0.611,0.591s-0.559,0.261-0.831,0.261
		c-0.274,0-0.535-0.066-0.784-0.201c-0.249-0.136-0.426-0.275-0.527-0.416l-0.173-0.212l-3.981-6.884
		c-0.255-0.426-0.384-0.775-0.384-1.045c0-0.465,0.331-0.896,0.993-1.298c0.486-0.284,0.869-0.425,1.149-0.425s0.5,0.088,0.658,0.26
		c0.161,0.174,0.329,0.436,0.508,0.783l2.51,4.875l2.503-4.877c0.139-0.245,0.245-0.422,0.315-0.533
		c0.069-0.108,0.181-0.217,0.333-0.328c0.153-0.109,0.357-0.164,0.614-0.164c0.255,0,0.604,0.134,1.051,0.406
		c0.664,0.399,0.995,0.825,0.995,1.274C151.936,18.566,151.809,18.919,151.554,19.37L151.554,19.37z"/>
	<path fill="#FFFFFF" d="M160.471,23.758c-0.206,0-0.46,0.072-0.767,0.213l-0.209,0.076c-0.422,0.157-1.002,0.234-1.74,0.234
		c-0.422,0-0.842-0.121-1.265-0.367c-0.42-0.245-0.63-0.547-0.63-0.908l4.532-0.004c0.473,0,0.902-0.189,1.29-0.57
		c0.391-0.38,0.584-0.968,0.584-1.762c-0.002-0.792-0.219-1.523-0.652-2.194c-0.829-1.264-2.131-1.896-3.902-1.894
		c-1.555,0-2.854,0.488-3.893,1.462c-1.038,0.975-1.556,2.273-1.556,3.898c0.002,1.291,0.402,2.457,1.207,3.5
		c0.408,0.543,0.979,0.977,1.712,1.306s1.572,0.491,2.517,0.491c2.716,0,4.071-0.576,4.071-1.725c0-0.244-0.081-0.539-0.249-0.888
		C161.229,24.047,160.879,23.758,160.471,23.758z M156.432,20.152c0.407-0.343,0.821-0.514,1.234-0.514
		c0.414,0,0.733,0.09,0.957,0.271c0.223,0.181,0.335,0.417,0.335,0.716c0,0.412-0.243,0.619-0.728,0.619l-2.409,0.002
		C155.821,20.858,156.023,20.493,156.432,20.152z"/>
	<path fill-rule="evenodd" clip-rule="evenodd" fill="#FFFFFF" d="M23.047,36.604c-0.317,0-0.634,0-0.951,0
		c-2.149-0.906-2.664-1.702-2.664-4.113c0-9.021,0.019-18.043-0.018-27.064c-0.008-1.844,0.523-3.261,2.302-4.029
		c0.57,0,1.142,0,1.712,0c1.653,0.824,2.272,2.142,2.181,3.988c-0.112,2.271-0.052,4.553-0.008,6.829
		c0.027,1.447,0.728,2.144,1.976,2.129c1.213-0.015,1.904-0.796,1.926-2.197c0.009-0.569-0.008-1.138,0.004-1.708
		c0.031-1.331,0.978-2.479,2.279-2.78c1.782-0.411,2.987,0.375,3.821,2.493c0,6.027,0,12.053,0,18.079
		c-0.049,0.036-0.119,0.063-0.139,0.11c-0.666,1.762-1.886,2.512-3.573,2.193c-1.503-0.281-2.384-1.493-2.386-3.282
		c-0.003-1.554,0.021-3.107-0.011-4.661c-0.024-1.259-0.765-1.996-1.927-2.008c-1.31-0.014-1.962,0.729-1.969,2.336
		c-0.014,3.234-0.067,6.471,0.03,9.702C25.695,34.63,24.967,35.962,23.047,36.604z"/>
	<path fill-rule="evenodd" clip-rule="evenodd" fill="#FFFFFF" d="M1.733,10.86c0.433-1.132,1.231-1.867,2.282-2.493
		c2.989-1.779,5.912-3.67,8.855-5.525c1.607-1.013,3.505-0.686,4.422,0.777c0.995,1.59,0.46,3.397-1.258,4.442
		c-2,1.216-3.963,2.491-5.957,3.716c-1.553,0.954-2.221,2.364-2.225,4.135c-0.006,2.06-0.006,4.121,0.004,6.181
		c0.008,1.773,0.702,3.17,2.25,4.118c2.023,1.24,4.021,2.521,6.041,3.766c1.596,0.983,2.125,2.819,1.216,4.315
		c-0.935,1.54-2.832,1.895-4.472,0.865c-3.188-2.002-6.418-3.94-9.555-6.018c-0.694-0.46-1.078-1.391-1.604-2.105
		C1.733,21.645,1.733,16.251,1.733,10.86z"/>
</g>
</svg>
