<?xml version="1.0" encoding="UTF-8"?>
<svg xmlns="http://www.w3.org/2000/svg" xmlns:xlink="http://www.w3.org/1999/xlink" viewBox="0 0 64 64" version="1.1">
<g id="surface1">
<path style=" " d="M 31.878906 2 C 31.21875 2 30.558594 2.21875 30.003906 2.660156 L 28.605469 3.78125 C 23.957031 7.5 18.359375 9.675781 12.421875 10.070313 L 8.800781 10.3125 C 7.15625 10.421875 5.902344 11.847656 6.007813 13.488281 L 6.695313 25.046875 C 7.480469 35.933594 12.449219 45.871094 20.6875 53.03125 L 29.910156 61.058594 C 30.472656 61.542969 31.175781 61.785156 31.878906 61.785156 C 32.585938 61.785156 33.289063 61.542969 33.847656 61.058594 L 43.078125 53.03125 C 51.3125 45.871094 56.28125 35.929688 57.066406 25.03125 L 57.753906 13.492188 C 57.855469 11.847656 56.601563 10.421875 54.957031 10.3125 L 51.339844 10.070313 C 45.398438 9.675781 39.800781 7.5 35.152344 3.78125 L 33.753906 2.660156 C 33.203125 2.21875 32.539063 2 31.878906 2 Z M 31.878906 4 C 32.101563 4 32.320313 4.074219 32.503906 4.222656 L 33.902344 5.34375 C 38.875 9.320313 44.859375 11.644531 51.207031 12.066406 L 54.828125 12.308594 C 55.375 12.34375 55.792969 12.820313 55.757813 13.371094 L 55.070313 24.898438 C 54.359375 34.75 50.042969 43.78125 42.878906 50.503906 L 42.878906 50.4375 C 42.878906 49.886719 42.433594 49.4375 41.878906 49.4375 C 41.328125 49.4375 40.878906 49.886719 40.878906 50.4375 L 40.878906 52.292969 L 32.535156 59.546875 C 32.164063 59.871094 31.597656 59.871094 31.222656 59.546875 L 22.878906 52.292969 L 22.878906 50.4375 C 22.878906 49.886719 22.433594 49.4375 21.878906 49.4375 C 21.328125 49.4375 20.878906 49.886719 20.878906 50.4375 L 20.878906 50.503906 C 13.71875 43.78125 9.398438 34.753906 8.6875 24.910156 L 8 13.367188 C 7.96875 12.820313 8.386719 12.34375 8.933594 12.308594 L 12.550781 12.066406 C 18.902344 11.644531 24.886719 9.320313 29.859375 5.34375 L 31.253906 4.222656 C 31.441406 4.074219 31.660156 4 31.878906 4 Z M 31.878906 6.867188 C 31.480469 6.867188 31.074219 6.984375 30.734375 7.226563 L 28.164063 9.023438 C 23.824219 12.058594 18.742188 13.847656 13.464844 14.203125 L 12.8125 14.246094 C 12.261719 14.28125 11.84375 14.757813 11.878906 15.308594 C 11.914063 15.835938 12.355469 16.242188 12.878906 16.242188 C 12.902344 16.242188 12.921875 16.242188 12.945313 16.238281 L 13.59375 16.199219 C 19.238281 15.820313 24.671875 13.90625 29.3125 10.660156 L 31.878906 8.863281 L 34.449219 10.660156 C 37.21875 12.601563 40.273438 14.070313 43.527344 15.019531 C 44.058594 15.175781 44.613281 14.871094 44.765625 14.34375 C 44.921875 13.8125 44.617188 13.257813 44.089844 13.101563 C 41.046875 12.210938 38.191406 10.839844 35.59375 9.023438 L 33.027344 7.226563 C 32.683594 6.984375 32.28125 6.867188 31.878906 6.867188 Z M 48.015625 13.957031 C 47.464844 13.871094 46.960938 14.257813 46.878906 14.800781 C 46.800781 15.347656 47.175781 15.859375 47.722656 15.9375 C 48.527344 16.054688 49.347656 16.144531 50.164063 16.199219 L 50.753906 16.238281 C 50.777344 16.238281 50.800781 16.238281 50.824219 16.238281 C 51.34375 16.238281 51.785156 15.835938 51.816406 15.308594 C 51.855469 14.753906 51.4375 14.277344 50.890625 14.238281 L 50.296875 14.203125 C 49.535156 14.148438 48.765625 14.070313 48.015625 13.957031 Z M 44.878906 22.4375 C 44.621094 22.4375 44.367188 22.535156 44.171875 22.734375 L 29.878906 37.023438 L 22.589844 29.730469 C 22.195313 29.339844 21.566406 29.339844 21.171875 29.730469 C 20.78125 30.121094 20.78125 30.753906 21.171875 31.144531 L 29.171875 39.144531 C 29.367188 39.339844 29.625 39.4375 29.878906 39.4375 C 30.136719 39.4375 30.394531 39.339844 30.589844 39.144531 L 45.589844 24.144531 C 45.980469 23.753906 45.980469 23.121094 45.589844 22.730469 C 45.390625 22.535156 45.136719 22.4375 44.878906 22.4375 Z M 26.878906 49.4375 C 26.328125 49.4375 25.878906 49.886719 25.878906 50.4375 L 25.878906 52.4375 C 25.878906 52.992188 26.328125 53.4375 26.878906 53.4375 C 27.433594 53.4375 27.878906 52.992188 27.878906 52.4375 L 27.878906 50.4375 C 27.878906 49.886719 27.433594 49.4375 26.878906 49.4375 Z M 31.878906 49.4375 C 31.328125 49.4375 30.878906 49.886719 30.878906 50.4375 L 30.878906 52.4375 C 30.878906 52.992188 31.328125 53.4375 31.878906 53.4375 C 32.433594 53.4375 32.878906 52.992188 32.878906 52.4375 L 32.878906 50.4375 C 32.878906 49.886719 32.433594 49.4375 31.878906 49.4375 Z M 36.878906 49.4375 C 36.328125 49.4375 35.878906 49.886719 35.878906 50.4375 L 35.878906 52.4375 C 35.878906 52.992188 36.328125 53.4375 36.878906 53.4375 C 37.433594 53.4375 37.878906 52.992188 37.878906 52.4375 L 37.878906 50.4375 C 37.878906 49.886719 37.433594 49.4375 36.878906 49.4375 Z "/>
</g>
</svg>
