<svg xmlns="http://www.w3.org/2000/svg" width="243.623" height="271.466" viewBox="0 0 243.623 271.466"><defs><style>.a{fill:#ebebeb;}.b{fill:#fff;}.c{fill:#dbdbdb;}.d{fill:#263238;}.e,.k{fill:#6236ff;}.f{fill:#a6a6a6;}.g{fill:#222221;opacity:0.2;}.h{fill:#eb9481;}.i{fill:#455a64;}.j{fill:#ff9bbc;}.k{opacity:0.5;}.l{fill:#fefefe;}.m{fill:#c7c7c7;}</style></defs><g transform="translate(-54.556 -38.933)"><g transform="translate(54.89 40.992)"><path class="a" d="M341.59,343.871h62.2s-3.094-4.026-6.5-4.53c0,0-6.609-19.743-17.737-19.882-10.316-.132-14.456,12.137-14.456,12.137s-4.807-5.5-9.349-3-7.156,9.721-7.156,9.721S343.453,341.1,341.59,343.871Z" transform="translate(-169.332 -152.969)"/><path class="a" d="M133.545,215.577H54.89s0-5.023,10.815-6.008c0,0,9.89-21.966,24.995-19.01,9.409,1.8,14.216,14.75,14.216,14.75s7.108-10.166,12.792-8.2,9.061,12.786,9.061,12.786S132.656,212.741,133.545,215.577Z" transform="translate(-54.89 -101.407)"/><path class="a" d="M403.914,190.973H350.44s5.047-4.7,7.288-4.7,8.79-15.772,17.154-15.1,12.8,12.413,12.8,12.413S397.852,180.4,403.914,190.973Z" transform="translate(-172.864 -93.771)"/><path class="a" d="M211.241,299.352H165.5s2.277-2.962,4.807-3.335c0,0,4.879-14.516,13.038-14.618,7.589-.1,10.635,8.928,10.635,8.928s3.515-4.05,6.874-2.2,5.263,7.15,5.263,7.15S209.865,297.316,211.241,299.352Z" transform="translate(-99.042 -137.777)"/><path class="a" d="M175.46,121.711h62.21s-3.088-4.026-6.5-4.53c0,0-6.609-19.743-17.731-19.882-10.322-.132-14.462,12.137-14.462,12.137s-4.807-5.5-9.349-3-7.15,9.721-7.15,9.721S177.323,118.941,175.46,121.711Z" transform="translate(-103.018 -64.29)"/><path class="a" d="M327.807,68.178c0,9.085-6.735,18.716-12.317,26.437-2.241,3.106-4.254,5.978-5.72,8.105-1.556,2.247-2.517,3.671-2.517,3.671H296.744s-.961-1.424-2.517-3.671c-1.466-2.127-3.479-5-5.72-8.105-5.582-7.733-12.317-17.364-12.317-26.437,0-14.841,11.043-24.514,23.3-25.686h.126c.787-.066,1.586-.1,2.4-.1s1.6.036,2.4.1h.126C316.764,43.664,327.807,53.337,327.807,68.178Z" transform="translate(-143.226 -42.372)"/><path class="b" d="M317.509,102.72c-.2,1.2-.409,2.4-.6,3.671h-2.349c-.222-1.25-.433-2.469-.631-3.671-8.6-51.792,1.8-60.36,1.8-60.36S326.107,50.928,317.509,102.72Z" transform="translate(-156.931 -42.36)"/><path class="b" d="M302.3,102.74c.967,2.307,1.616,3.671,1.616,3.671h-1.376s-.883-1.37-2.3-3.671c-1.021-1.676-2.325-3.845-3.773-6.357-4.729-8.231-10.815-18.434-9.667-29.819C288.358,50.8,301.691,43.5,303.668,42.53l.246-.12-.12.1c-1.13,1.033-10.022,9.673-10.022,25.619C293.772,80.821,299.432,95.92,302.3,102.74Z" transform="translate(-147.403 -42.38)"/><path class="b" d="M330.36,96.363c-1.448,2.511-2.752,4.68-3.773,6.357-1.418,2.3-2.3,3.671-2.3,3.671H322.91s.649-1.364,1.616-3.671c2.866-6.819,8.526-21.918,8.526-34.638,0-15.946-8.892-24.586-10.022-25.619l-.12-.1.246.12c1.977,1,15.309,8.3,16.871,24.063C341.157,77.929,335.089,88.131,330.36,96.363Z" transform="translate(-161.875 -42.36)"/><path class="c" d="M321.754,142.82c-1.556,2.247-2.517,3.671-2.517,3.671H308.727s-.961-1.424-2.517-3.671Z" transform="translate(-155.209 -82.46)"/><rect class="c" width="0.601" height="36.555" transform="translate(142.509 39.452) rotate(-16.88)"/><rect class="c" width="0.601" height="35.059" transform="translate(153.111 39.392) rotate(-3.86)"/><rect class="c" width="36.555" height="0.601" transform="translate(163.855 74.264) rotate(-73.14)"/><rect class="c" width="35.059" height="0.601" transform="translate(161.467 74.331) rotate(-86.14)"/><rect class="c" width="45.303" height="1.202" transform="translate(136.118 39.114)"/><path class="a" d="M321.12,166.34l-.252,3.034-.565,6.831H310.167l-.565-6.831-.252-3.034Z" transform="translate(-156.462 -91.849)"/><path class="c" d="M321.12,166.34l-.252,3.034H309.6l-.252-3.034Z" transform="translate(-156.462 -91.849)"/><rect class="a" width="12.948" height="1.718" transform="translate(152.299 73.632)"/></g><g transform="translate(60.358 261.527)"><path class="d" d="M63.99,409.71l27.939-.144,27.945-.054,55.877-.1,55.877.1,27.945.054,27.939.144-27.939.144-27.945.054-55.877.1-55.877-.1-27.945-.054Z" transform="translate(-63.99 -409.41)"/></g><g transform="translate(54.556 286.979)"><ellipse class="a" cx="104.563" cy="11.71" rx="104.563" ry="11.71"/></g><g transform="translate(82.287 38.933)"><path class="e" d="M122.089,66.94c-.2-.144-9.932-2-16.313,6.008-5.87,7.36-5.78,18.4-4.753,18.415,1.256,0,3.244-5.774,8.766-10.058,1.959-1.52,5.708-1.436,5.708-1.436Z" transform="translate(-100.488 -49.998)"/><path class="e" d="M156.528,89.32c.2.138,5.083,8.76-.445,17.376-5.083,7.925-15.574,11.416-15.91,10.418-.409-1.2,4.422-4.927,6.705-11.536.811-2.343-.475-5.864-.475-5.864Z" transform="translate(-116.319 -59.046)"/><path class="a" d="M131.91,85.123,120.44,76.9s.511-12.149,8.207-21.558A52.272,52.272,0,0,1,142.292,43.93c6.549-3.887,12.5-5.7,13.819-4.747s1.526,7.21-.042,14.63a52.5,52.5,0,0,1-6.4,16.577C143.248,80.731,131.91,85.123,131.91,85.123Z" transform="translate(-108.452 -38.933)"/><rect class="e" width="11.951" height="3.629" transform="translate(12.87 38.596) rotate(35.62)"/><path class="e" d="M154.845,75.133a6.97,6.97,0,1,1-1.6-9.721A6.97,6.97,0,0,1,154.845,75.133Z" transform="translate(-117.141 -48.981)"/><circle class="f" cx="4.831" cy="4.831" r="4.831" transform="translate(27.213 17.266)"/><path class="e" d="M170.589,53.864,156.77,43.98c6.549-3.887,12.5-5.7,13.819-4.747S172.157,46.413,170.589,53.864Z" transform="translate(-122.954 -38.953)"/><path class="a" d="M161,47.13a.512.512,0,1,1-.114-.715.5.5,0,0,1,.114.715Z" transform="translate(-124.274 -41.881)"/><path class="a" d="M165.384,50.29a.512.512,0,1,1-.114-.715.5.5,0,0,1,.114.715Z" transform="translate(-126.023 -43.142)"/><path class="a" d="M169.824,53.46a.511.511,0,1,1,.092-.381.511.511,0,0,1-.092.381Z" transform="translate(-127.795 -44.407)"/><path class="a" d="M174.234,56.61a.511.511,0,1,1,.092-.381A.511.511,0,0,1,174.234,56.61Z" transform="translate(-129.555 -45.665)"/><path class="a" d="M178.643,59.77a.517.517,0,0,1-.715.12.523.523,0,0,1-.12-.721.517.517,0,0,1,.721-.114.511.511,0,0,1,.114.715Z" transform="translate(-131.314 -46.925)"/></g><g transform="translate(122.91 76.94)"><path class="d" d="M168.142,235.392c0-.409-.042-.817-.042-1.2h.451a11.819,11.819,0,0,0,.042,1.2Z" transform="translate(-168.1 -154.88)"/><path class="d" d="M211.821,227.315h-.715v-.451h2.4v.451C212.963,227.3,212.392,227.315,211.821,227.315Zm-3.749-.15c-.805-.066-1.622-.156-2.4-.264l.06-.445c.793.108,1.6.192,2.4.258Zm8.5-.1-.048-.445c.793-.084,1.6-.186,2.4-.306l.066.445C218.184,226.882,217.373,226.99,216.574,227.068Zm-13.927-.673c-.781-.156-1.58-.342-2.367-.541l.108-.439c.781.2,1.574.385,2.349.541Zm19.317-.192-.1-.445c.775-.168,1.562-.361,2.343-.6l.114.439c-.781.234-1.574.445-2.355.607ZM197.329,225c-.769-.246-1.538-.523-2.3-.811l.162-.421c.745.288,1.508.559,2.271.805Zm29.873-.27-.144-.427c.757-.252,1.52-.529,2.265-.823l.168.421c-.721.294-1.49.571-2.253.829Zm-34.932-1.694c-.733-.33-1.466-.691-2.187-1.063l.21-.4c.709.373,1.442.727,2.163,1.057Zm40.051-.3-.186-.409c.721-.336,1.442-.7,2.139-1.081l.216.4c-.709.36-1.436.727-2.169,1.069Zm-44.894-2.247c-.691-.421-1.382-.859-2.049-1.3l.246-.379c.661.445,1.346.883,2.037,1.3Zm49.671-.4-.246-.379c.655-.433,1.322-.9,1.971-1.376l.27.361c-.661.463-1.328.931-1.995,1.37Zm-54.2-2.674c-.637-.493-1.274-1.009-1.893-1.532l.294-.342c.6.523,1.238,1.027,1.875,1.514Zm58.551-.6-.294-.342c.6-.511,1.2-1.057,1.8-1.616l.312.324c-.613.523-1.22,1.075-1.821,1.592Zm-62.7-2.956c-.6-.565-1.154-1.154-1.694-1.742l.33-.306c.535.6,1.106,1.166,1.682,1.724Zm66.62-.847-.33-.306c.529-.6,1.063-1.2,1.592-1.8l.342.294c-.535.583-1.076,1.2-1.6,1.772Zm-70.3-3.2c-.5-.643-1-1.3-1.454-1.953l.367-.258c.451.649.937,1.3,1.442,1.929Zm73.83-1.027-.354-.276c.475-.6.955-1.274,1.43-1.941l.367.258C249.848,207.493,249.361,208.154,248.911,208.779ZM172,205.246c-.415-.715-.8-1.442-1.142-2.151l.4-.2c.336.7.715,1.418,1.13,2.127Zm80.055-.925-.379-.252c.439-.667.877-1.346,1.3-2.031l.385.234c-.457.691-.9,1.376-1.334,2.049Zm-82.368-4.044a23.3,23.3,0,0,1-.691-2.343l.439-.108a23.537,23.537,0,0,0,.673,2.3Zm85.24-.6-.385-.228c.4-.691.805-1.388,1.2-2.1l.391.222c-.421.709-.823,1.43-1.22,2.1Zm2.674-4.759-.4-.216c.379-.7.757-1.418,1.136-2.133l.4.21Zm2.53-4.807-.4-.2,1.1-2.157.4.2q-.571,1.069-1.124,2.139Zm2.457-4.867-.4-.2,1.081-2.163.4.2Zm2.439-4.873-.4-.2L265.716,178l.4.2Zm2.463-4.861-.4-.2c.366-.715.739-1.43,1.118-2.151l.4.21c-.4.691-.775,1.406-1.148,2.121Zm2.548-4.807-.4-.216c.385-.7.769-1.412,1.166-2.115l.391.222c-.415.673-.805,1.376-1.184,2.079Zm2.65-4.735-.391-.222c.409-.7.817-1.394,1.232-2.085l.385.234q-.649,1-1.25,2.061Zm2.812-4.638-.385-.24c.433-.679.871-1.358,1.316-2.031l.372.252c-.463.637-.9,1.316-1.328,1.989Zm3-4.518-.367-.258c.463-.661.931-1.322,1.412-1.971l.361.264q-.733.943-1.43,1.935Zm3.232-4.368-.385-.306c.5-.637,1.009-1.262,1.526-1.887l.348.288q-.766.928-1.514,1.875Zm3.485-4.164-.336-.3q.805-.9,1.64-1.8l.324.306c-.577.577-1.118,1.166-1.652,1.766Zm3.743-3.929-.312-.318c.6-.565,1.166-1.124,1.76-1.67l.306.33c-.619.517-1.208,1.069-1.778,1.634Zm4.014-3.647-.288-.342c.6-.523,1.25-1.033,1.881-1.532l.276.354c-.649.463-1.28.973-1.893,1.49Zm4.278-3.335L297,137c.655-.469,1.328-.937,1.995-1.382l.252.373c-.691.415-1.358.877-2.007,1.346Zm4.524-3-.24-.385c.691-.415,1.4-.829,2.1-1.2l.222.4a19.437,19.437,0,0,0-2.079,1.166Z" transform="translate(-168.459 -114.401)"/><path class="d" d="M397.864,130.267l-.2-.4c.354-.18.715-.361,1.082-.535l.2.4Z" transform="translate(-259.733 -113.023)"/><path class="e" d="M392.448,112.327,388.2,124l8.922-6.97,34.1-12.371Z" transform="translate(-255.957 -103.176)"/><path class="g" d="M392.448,112.327,388.2,124l8.922-6.97,34.1-12.371Z" transform="translate(-255.957 -103.176)"/><path class="d" d="M398.264,127.972,388.2,132.22l8.922-6.97Z" transform="translate(-255.957 -111.395)"/><path class="e" d="M403.05,117.031l34.1-12.371-27.975,27.3Z" transform="translate(-261.885 -103.176)"/><path class="e" d="M385.854,111.341,371.68,102.19l52.951,1.484Z" transform="translate(-249.363 -102.19)"/></g><g transform="translate(94.084 77.978)"><path class="h" d="M244.144,218.13s-3.671,32.757-6.189,54.021c-.457,3.839-.871,7.306-1.2,10.13-.475,3.821-.829,6.483-.991,7.348-.144.739-.1,3.683-.066,7.811v7.931c-.132,11.206-.1,26.058-.072,35.371,0,5.305-.18,8.814-.18,8.814H210.065s-.072-3.413-.132-8.814c-.162-14.648-.258-43.9,1.274-59.374,2.127-21.48,8.946-63.238,8.946-63.238Z" transform="translate(-155.937 -149.508)"/><path class="h" d="M180.032,444.668c1.376.457,40.646.343,42.142-.6.565-.354.883-6.08,1.069-13q.06-2.247.1-4.608c.03-1.857.054-3.737.066-5.564.048-8.2-.066-15.423-.066-15.423H197.8v20.987l.132,4.608s-15.021,6.771-16.541,7.991S178.663,444.242,180.032,444.668Z" transform="translate(-143.798 -224.288)"/><path class="b" d="M180.032,454.915c1.376.457,40.646.342,42.142-.6.565-.354.883-6.08,1.069-13q.06-2.247.1-4.608c.03-1.857.054-3.737.066-5.564H197.8V436.7l.132,4.608s-15.021,6.771-16.541,7.991S178.663,454.488,180.032,454.915Z" transform="translate(-143.798 -234.535)"/><path class="e" d="M179.832,458.647c.9.294,40.027.943,42.377-.6.685-.457,1.021-8.844,1.2-17.707H197.719l.132,4.632s-15.1,6.807-16.637,8.033S178.456,458.161,179.832,458.647Z" transform="translate(-143.717 -238.207)"/><path class="d" d="M181.1,468.062c6.609-.186,33.328-.294,39.889.03.054,0,.054.042,0,.042-6.561.324-33.274.216-39.889.036C180.954,468.164,180.954,468.062,181.1,468.062Z" transform="translate(-144.419 -249.202)"/><path class="d" d="M208.524,445.459c2.6-.5,5.786-.1,7.811,1.742.072.072-.03.18-.114.156a37,37,0,0,0-7.661-1.574.163.163,0,0,1-.036-.324Z" transform="translate(-155.351 -240.171)"/><path class="d" d="M205.423,447.35c2.608-.493,5.792-.1,7.811,1.748.078.072,0,.18-.108.156a36.583,36.583,0,0,0-7.691-1.592.168.168,0,0,1-.012-.312Z" transform="translate(-154.132 -240.927)"/><path class="d" d="M202.274,449.249c2.6-.5,5.792-.1,7.811,1.742.078.072-.03.18-.114.156a36.914,36.914,0,0,0-7.661-1.574.163.163,0,0,1-.036-.324Z" transform="translate(-152.857 -241.684)"/><path class="d" d="M199.157,451.14c2.608-.493,5.792-.1,7.811,1.748.078.072,0,.18-.108.156a36.583,36.583,0,0,0-7.667-1.574.168.168,0,0,1-.036-.33Z" transform="translate(-151.621 -242.44)"/><path class="d" d="M201.492,438.736c1.845,1.43,4.248,2.007,6.4,2.8a.33.33,0,0,0,.409-.33.066.066,0,0,0,.06-.09,13.957,13.957,0,0,0-4.026-5.96c-1.094-.907-3-1.538-4.02-.126S200.417,437.907,201.492,438.736Zm-.667-2.091c-.469-2.86,2.6-1.364,3.383-.661a14.7,14.7,0,0,1,1.382,1.484,41.043,41.043,0,0,1,2.4,3.425c-1.033-.451-2.1-.811-3.142-1.2C203.619,439.175,201.084,438.22,200.826,436.646Z" transform="translate(-151.973 -235.756)"/><path class="d" d="M222.223,438.195c-.637-1.622-2.644-1.49-3.923-.883a13.933,13.933,0,0,0-5.408,4.765.066.066,0,0,0,.036.1c-.042.2.078.445.312.421,2.283-.228,4.753-.186,6.9-1.112C221.406,440.953,222.824,439.727,222.223,438.195Zm-5.576,3.353c-1.118.138-2.235.222-3.353.4a40.666,40.666,0,0,1,3.208-2.71,15.063,15.063,0,0,1,1.712-1.1c.925-.487,4.278-1.16,3.112,1.49C220.685,441.091,217.987,441.379,216.647,441.548Z" transform="translate(-157.148 -236.831)"/><path class="i" d="M244.148,218.13s-3.671,32.757-6.189,54.021c-.457,3.839-.871,7.306-1.2,10.13-.475,3.821-.829,6.483-.991,7.348-.144.739-.1,3.683-.066,7.811v7.931c-.132,11.206-.1,26.058-.072,35.371H209.943c-.162-14.648-.258-43.9,1.274-59.374,2.121-21.48,8.94-63.238,8.94-63.238Z" transform="translate(-155.941 -149.508)"/><path class="d" d="M244.835,297.46c-.03-4.14-.078-7.084.066-7.811.961-5.065,8.412-71.5,8.412-71.5H232.8Z" transform="translate(-165.1 -149.516)"/><path class="h" d="M331.238,289.418s-.859.349-2.4.937c-1.346.523-3.22,1.2-5.5,2.049l-.889.312-.162.06-.559.2c-15.622,5.54-46.336,15.1-60.384,10.25s-33.953-85.36-34.344-85.1h34.049s6.333,16.337.931,26.617c-.5.949,12.095,34.488,19.713,33.568,5.948-.721,22.537-6.946,33-10.166l1.706-.523,1.9-.6h.03l3.245-1,2.187-.673Z" transform="translate(-162.785 -149.507)"/><path class="h" d="M410.765,327.973c.03-1.448-11.656-38.94-13.008-40.087-.5-.439-6.068.949-12.732,2.812-1.442.4-2.95.757-4.434,1.262-1.863.637-19.671,6.441-19.671,6.441l7.324,24.742,14.1-4.807,5.78-1.965,4.362-1.478s10.9,12.347,12.509,13.447S410.735,329.415,410.765,327.973Z" transform="translate(-216.241 -177.32)"/><path class="b" d="M420.145,327.973c.03-1.448-11.656-38.94-13.008-40.087-.5-.439-6.068.949-12.732,2.812-1.442.4-2.95.757-4.434,1.262-1.863.637-3.767,1.172-5.552,1.8,2.223,7.324,5.377,17.989,7.3,24.55l5.78-1.965,4.362-1.478s10.9,12.347,12.509,13.447S420.115,329.415,420.145,327.973Z" transform="translate(-225.622 -177.32)"/><path class="e" d="M423.842,327.985c.03-1.454-11.722-39.156-13.08-40.31-.6-.535-8.748,1.634-17.262,4.1l7.57,24.544,4.386-1.49s10.959,12.425,12.581,13.531S423.842,329.439,423.842,327.985Z" transform="translate(-229.246 -177.235)"/><path class="d" d="M433.448,329.349c-2.127-6.273-10.106-31.772-11.728-38.129,0-.054,0-.066.042,0,2.241,6.171,10.01,31.73,11.788,38.1C433.586,329.451,433.49,329.481,433.448,329.349Z" transform="translate(-240.511 -178.665)"/><path class="d" d="M410.719,329.814c-1.238-2.337-1.8-5.5-.6-7.955.042-.1.18-.03.18.06a36.05,36.05,0,0,0,.757,7.811.173.173,0,0,1-.337.084Z" transform="translate(-235.614 -190.894)"/><path class="d" d="M413.449,332.244c-1.238-2.343-1.8-5.5-.6-7.955.048-.1.18-.03.18.06a36.523,36.523,0,0,0,.757,7.811.173.173,0,1,1-.336.084Z" transform="translate(-236.704 -191.864)"/><path class="d" d="M416.159,334.684c-1.238-2.343-1.8-5.5-.6-7.955.048-.1.18-.03.18.06a36.917,36.917,0,0,0,.757,7.811.173.173,0,1,1-.336.084Z" transform="translate(-237.786 -192.838)"/><path class="d" d="M418.909,337.094c-1.238-2.343-1.8-5.5-.6-7.955.048-.1.18-.03.18.06a36.834,36.834,0,0,0,.757,7.811.173.173,0,1,1-.336.084Z" transform="translate(-238.883 -193.8)"/><path class="d" d="M407.341,330.1a.385.385,0,0,0-.354-.09.072.072,0,0,0-.108,0l-.186.138h-.036l-.072.054q-.138.1-.27.216a13.978,13.978,0,0,0-2.055,2.073c-.282.349-.553.715-.8,1.088a12.171,12.171,0,0,0-1.087,2.013c-.547,1.31-.6,3.317,1.063,3.875s2.716-.943,3.2-2.217a15.213,15.213,0,0,0,.721-4.975h0c0-.649.03-1.292.066-1.923a.234.234,0,0,0-.078-.252Zm-.733,2.4c0,.409-.054.811-.084,1.2-.1,1.34-.264,4.05-1.694,4.759-2.6,1.292-2.073-2.085-1.628-3.034a15.069,15.069,0,0,1,1.009-1.766c.1-.162.21-.318.318-.475h0c.655-.931,1.388-1.8,2.1-2.68l.1-.132h0v.06a.823.823,0,0,0,0,.12c-.066.655-.108,1.3-.144,1.953Z" transform="translate(-232.651 -194.158)"/><path class="d" d="M405.845,325.124h0c-.288-.7-.565-1.424-.853-2.145a14.228,14.228,0,0,0-2.229-4.092c-.733-.865-1.953-1.694-3.076-1.358a1.892,1.892,0,0,0-.679.354c-1.364,1.081-.649,2.962.312,4.008a12.48,12.48,0,0,0,2.313,1.947,14,14,0,0,0,3.184,1.6c.114.042.222.078.336.108l.1.03h.042l.156.048a.072.072,0,0,0,.1-.066.324.324,0,0,0,.294-.433Zm-.769.072a38.864,38.864,0,0,1-3.4-2.181l-.4-.306a13.219,13.219,0,0,1-1.154-1.009c-.667-.667-2.067-3.184-.21-3.413a2.86,2.86,0,0,1,.715,0c1.58.18,2.656,2.674,3.208,3.9.445.985.835,1.983,1.31,2.95a1.44,1.44,0,0,0,.066.138Z" transform="translate(-231.143 -189.154)"/><path class="i" d="M323.337,292.4l-.889.312-.162.06-.559.2c-15.622,5.54-46.336,15.1-60.384,10.25s-33.953-85.36-34.344-85.1h34.049s6.333,16.337.931,26.617c-.5.949,12.095,34.488,19.713,33.568,5.948-.721,22.537-6.946,33-10.166l1.706-.523Z" transform="translate(-162.785 -149.507)"/><path class="d" d="M225.839,141.309a.342.342,0,0,0,.306.33l1.328-.1c.781-3.467,1.73-6.273,1.52-5.2a18.494,18.494,0,0,0-.21,5.107l2.62-.234c.312-5.96,1.1-10.454,1.2-9.115.33,5.407.835,7.1,1.412,8.892,6.327-.6,14.612-1.418,20.59-2.169.294-3.317.475-6.88.6-6.651a17.687,17.687,0,0,1,1.851,6.333c1.9-.252,3.413-.493,4.332-.691,0,0,.114-2.764.066-3.659a19.756,19.756,0,0,0-1.5-6.681,34.005,34.005,0,0,0-3.527-5.894l-.036-.042h0a19.411,19.411,0,0,1-2.1-3.965h0a20.425,20.425,0,0,1-.883-3.154c-.763-3.929-3.269-7.072-6.88-7.631-7.378-5.714-13.621-1.995-14.985,3.371-.132.523-.246,1.118-.348,1.766h0c-.391,2.4-.6,5.456-.9,7.811h0a23.169,23.169,0,0,1-.457,2.77C228.645,126.913,225.136,129.8,225.839,141.309Z" transform="translate(-162.284 -103.918)"/><path class="d" d="M262.877,110.067a7.384,7.384,0,0,1,4.807,5.474,20.644,20.644,0,0,0,1.52,4.807,17.5,17.5,0,0,0,3.16,3.971,13.169,13.169,0,0,1,3.863,6.7,23.7,23.7,0,0,1,.318,9.1h0a24.953,24.953,0,0,0-.847-9.421c-.883-3.07-2.788-4.807-4.777-6.97a13.471,13.471,0,0,1-3.281-6.068,17.914,17.914,0,0,0-1.2-4.206,8.164,8.164,0,0,0-3.6-3.094C262.583,110.283,262.709,110.025,262.877,110.067Z" transform="translate(-177.032 -106.371)"/><path class="d" d="M225.5,132.786c1.334-2.475,2.776-4.632,3.377-7.558.553-2.668.709-5.407,1.274-8.087,0-.042.072-.036.06,0-.793,4.7-.493,9.295-2.746,13.471a31.341,31.341,0,0,0-3.136,7,23.866,23.866,0,0,0-.529,8.376c0,.1-.108.108-.132,0a19.551,19.551,0,0,1,1.833-13.2Z" transform="translate(-161.282 -109.184)"/><path class="h" d="M209.137,152.48c-5.317,5.161-24.989,14.756-32.006,12.293-4.578-1.6-17.707-14.42-20.29-18.217-3-4.434,6.4-13.026,9.049-11.314,3.311,2.145,13.573,13.338,16.691,15.117,1.8,1.027,14.372-3.088,26.473-5.6C213.746,143.78,212.316,149.428,209.137,152.48Z" transform="translate(-134.546 -116.333)"/><path class="h" d="M163.424,135.761s-7.907-5.582-8.412-5.72-.7.541-.9,1.063a5.137,5.137,0,0,0-.036,1.009c0,1.592,0,4.4-2.013,4.062-2.608-.451-2.523-6.771-2.355-7.757a3.094,3.094,0,0,1,.655-1.148c1-1.244,3-2.8,4.9-2.505,2.62.4,5.047,2,7.252,3.238Z" transform="translate(-131.906 -112.225)"/><path class="d" d="M163.906,135.761s-7.907-5.582-8.412-5.72-.7.541-.9,1.063a5.138,5.138,0,0,0-.036,1.009c-1.328-1.718-2.788-3.6-3.713-4.843,1-1.244,3-2.8,4.9-2.505,2.62.4,5.047,2,7.252,3.238Z" transform="translate(-132.388 -112.225)"/><path class="h" d="M156.273,146.338c-.33-.463-3.749-3.953-6.327-6.609.361-2.818.421-8.52.439-10.028a18.532,18.532,0,0,0-.144-5.407c-.312,0-1.418,0-2.764-.132a14.184,14.184,0,0,1-5.263-1.268,1.929,1.929,0,0,1-1.154-1.634c0-1.2,2.716-1.328,5.912-1.718,4.35-.535,9.727-.955,11.458.649,2.554,2.4,3.689,7.5,4.206,9.012s3.689,5.564,3.689,5.564C163.976,142.919,156.712,146.951,156.273,146.338Z" transform="translate(-128.48 -109.963)"/><path class="i" d="M128.9,119.8s5.732,1.959,11.752,3.725,18.169,8.183,18.235,8.7-13.375-3.443-19.064-5.882-11.29-5.269-11.29-5.269Z" transform="translate(-123.479 -110.257)"/><path class="a" d="M128.623,119.62l4.008,1.172-.841,2.1-3.689-1.827Z" transform="translate(-123.307 -110.186)"/><path class="i" d="M125.6,118.187a3.293,3.293,0,0,0-2.716-1.3,3.166,3.166,0,0,1-2.4-.859s1.136,3.845,4.566,3.6Z" transform="translate(-120.265 -108.753)"/><path class="e" d="M120.229,115.84c.24,0,.9.8,1.8.877s.529,2.6-.312,1.766C120.758,117.54,119.8,115.816,120.229,115.84Z" transform="translate(-120.123 -108.677)"/><path class="h" d="M150.637,143.771c-.883-.9-1.676-1.676-2.229-2.2a8.946,8.946,0,0,1-3-5.906c-.276-2.013-4.711-6.231-1.376-6.543s5.966,5.822,6.741,5.371c.144-.084.252-.361.324-.751C151.058,135.251,151,140.953,150.637,143.771Z" transform="translate(-129.171 -113.974)"/><path class="d" d="M154.247,133.738c0-.078-.054-.066-.066,0,0,.276-.186,1.52-.469,1.52-.5,0-2.253-2.487-3.172-3.4-.054-.048-.126,0-.072.06.258.228,1.033,1.316,1.232,1.574.379.5,1.424,2.115,2.055,2.115C154.174,135.642,154.277,134.056,154.247,133.738Z" transform="translate(-132.228 -115.062)"/><path class="e" d="M214.38,154.134l2.662,8.322c.985,3.136,1.9,6.008,1.959,6.339a96.733,96.733,0,0,0,13.657-9.121c5.78-4.692,5.173-8.628,1.8-9.235a5.949,5.949,0,0,0-1.55-.048C228.319,150.817,214.38,154.134,214.38,154.134Z" transform="translate(-157.747 -122.456)"/><path class="b" d="M226.514,156.992h-.469a.871.871,0,0,1-.9-.871.6.6,0,0,0-.6-.571h-.493v-.3h.493a.871.871,0,0,1,.877.871.565.565,0,0,0,.6.6h.469Zm-5.137,5.251a.6.6,0,0,1,.811,0,.889.889,0,0,0,1.232,0l.348-.355-.21-.21-.354.348a.6.6,0,0,1-.805,0,.877.877,0,0,0-1.2,0l-.336.336.216.21Z" transform="translate(-160.334 -124.408)"/><path class="d" d="M218.81,162.507c.985,3.136,1.9,6.008,1.959,6.339a96.733,96.733,0,0,0,13.657-9.121c5.78-4.692,5.173-8.628,1.8-9.235Z" transform="translate(-159.515 -122.508)"/><path class="e" d="M265.2,238.65H212l.306-1.911,6.663-41.686.09-.547,3.13-19.6s-2.752-4.164-1.917-7.925c.421-1.9,4.807-9.511,7.138-12.617a23.555,23.555,0,0,1,2.469-2.92,10.21,10.21,0,0,1,8.466-2.349h0a7.211,7.211,0,0,1,1.274.318c3.533,1.2,7.877,5.347,10.214,11.608.811,2.175,1.616,4.711,2.4,7.516h0c.036.138.072.276.114.415,2.325,8.346,4.548,18.968,6.465,29.393,1.087,5.894,2.079,11.728,2.938,17.046l.108.7C263.924,228.977,265.2,238.65,265.2,238.65Z" transform="translate(-156.797 -121.901)"/><path class="b" d="M240.044,196.329h-.475a.871.871,0,0,1-.871-.871.6.6,0,0,0-.6-.6h-.5v-.294h.5a.877.877,0,0,1,.871.877.6.6,0,0,0,.571.571h.475Zm7.462,26.407h-.469a.6.6,0,0,1-.571-.571.871.871,0,0,0-.871-.871h-.5v.3h.5a.6.6,0,0,1,.571.571.871.871,0,0,0,.871.871h.469ZM256.8,197.5h-.469a.6.6,0,0,1-.571-.6.877.877,0,0,0-.877-.871h-.5v.3h.5a.6.6,0,0,1,.6.571.871.871,0,0,0,.871.871h.469Zm-23.757-13.585h-.475a.6.6,0,0,1-.571-.571.871.871,0,0,0-.871-.871h-.5v.3h.5a.6.6,0,0,1,.6.571.871.871,0,0,0,.871.871h.475Zm-8.766-11.236h-.469a.6.6,0,0,1-.6-.571.871.871,0,0,0-.877-.871h-.493v.3h.493a.6.6,0,0,1,.6.6.871.871,0,0,0,.871.871h.469Zm23.39,10.929h-.475a.6.6,0,0,1-.6-.571.871.871,0,0,0-.871-.871h-.5v.3h.523a.6.6,0,0,1,.571.6.871.871,0,0,0,.871.871h.475Zm-8.652-15.285h-.481a.6.6,0,0,1-.571-.571.871.871,0,0,0-.871-.871h-.5v.3h.5a.6.6,0,0,1,.571.6.871.871,0,0,0,.871.871h.475Zm-9.565,38.856h-.469a.6.6,0,0,1-.571-.6.877.877,0,0,0-.877-.871h-.5v.3h.5a.6.6,0,0,1,.6.6.877.877,0,0,0,.871.877h.469Zm12.137,25.043h-.475a.6.6,0,0,1-.6-.6.871.871,0,0,0-.871-.871h-.5v.3h.5a.6.6,0,0,1,.571.571.871.871,0,0,0,.871.871h.475Zm15.76,8.526h-.475a.6.6,0,0,1-.571-.6.871.871,0,0,0-.871-.871h-.5v.3h.5a.6.6,0,0,1,.571.571.877.877,0,0,0,.871.877h.475Zm-33.118-5.93h-.475a.6.6,0,0,1-.6-.571.871.871,0,0,0-.871-.871h-.5v.3h.529a.6.6,0,0,1,.571.571.871.871,0,0,0,.871.871h.475Zm13.32-16.307h-.475a.6.6,0,0,1-.571-.571.871.871,0,0,0-.871-.871h-.5v.3h.5a.6.6,0,0,1,.6.571.871.871,0,0,0,.871.871h.475Zm-14.528,2.4h-.475a.6.6,0,0,1-.571-.571.877.877,0,0,0-.871-.877h-.5v.3h.5a.6.6,0,0,1,.571.6.871.871,0,0,0,.871.871h.475Zm21.215-13.393h-.475a.6.6,0,0,1-.571-.571.871.871,0,0,0-.871-.871h-.5v.3h.5a.6.6,0,0,1,.571.6.871.871,0,0,0,.871.871h.475Zm18.578,18.025h-.475a.6.6,0,0,1-.571-.6.877.877,0,0,0-.871-.871h-.5v.3h.5a.6.6,0,0,1,.571.571.877.877,0,0,0,.871.877h.475Zm-33.22-34.89a.6.6,0,0,1,.805,0,.877.877,0,0,0,1.2,0l.354-.354-.21-.21-.354.354a.6.6,0,0,1-.811,0,.889.889,0,0,0-1.232,0l-.33.33.21.21Zm-5.407-9.012a.6.6,0,0,1,.805,0,.865.865,0,0,0,1.232,0l.354-.348-.21-.216-.354.354a.6.6,0,0,1-.805,0,.9.9,0,0,0-1.238,0l-.33.336.21.21Zm27.224,24.73a.6.6,0,0,1,.805,0,.889.889,0,0,0,1.2,0l.354-.354-.21-.21-.354.354a.6.6,0,0,1-.805,0,.871.871,0,0,0-1.238,0l-.33.33.21.216Zm-13.621-29.242a.6.6,0,0,1,.805,0,.889.889,0,0,0,1.232,0l.354-.355-.21-.21-.354.348a.6.6,0,0,1-.811,0,.9.9,0,0,0-1.232,0l-.33.336.21.21Zm-3.136-18.788a.6.6,0,0,1,.811,0,.877.877,0,0,0,1.232,0l.354-.354-.216-.21-.348.348a.6.6,0,0,1-.811,0,.877.877,0,0,0-1.2,0l-.336.336.216.21Zm-6.134,10.244a.6.6,0,0,1,.805,0,.865.865,0,0,0,1.232,0l.354-.348-.21-.216-.354.354a.6.6,0,0,1-.811,0,.877.877,0,0,0-1.2,0l-.33.336.21.21Zm9.733,18.512a.6.6,0,0,1,.571-.571.871.871,0,0,0,.871-.871v-.5h-.3v.5a.6.6,0,0,1-.571.6.871.871,0,0,0-.871.871v.475h.3Zm-3.2,23.685a.6.6,0,0,1,.6-.571.871.871,0,0,0,.871-.871v-.5h-.3v.5a.6.6,0,0,1-.571.6.871.871,0,0,0-.9.841v.475h.3Zm16.7,17.676a.6.6,0,0,1,.6-.571.871.871,0,0,0,.871-.871v-.5h-.3v.487a.6.6,0,0,1-.571.6.877.877,0,0,0-.877.871v.475h.3Zm11.554,11.512a.6.6,0,0,1,.571-.571.871.871,0,0,0,.871-.871v-.5h-.3v.5a.6.6,0,0,1-.6.571.871.871,0,0,0-.871.871v.475h.3ZM259.1,206.646a.565.565,0,0,1,.571-.6.877.877,0,0,0,.871-.877v-.5h-.3v.5a.6.6,0,0,1-.571.6.871.871,0,0,0-.871.871v.469h.3Zm-37.143,5a.6.6,0,0,1,.6-.571.871.871,0,0,0,.871-.871v-.5h-.3v.475a.565.565,0,0,1-.571.6.871.871,0,0,0-.871.871v.475h.3Zm.721-21.293a.6.6,0,0,1,.571-.571.871.871,0,0,0,.865-.871v-.5h-.3v.5a.6.6,0,0,1-.6.6.871.871,0,0,0-.871.871v.475h.3Zm7.769-13.819a.6.6,0,0,1,.571-.6.871.871,0,0,0,.871-.871v-.5h-.3v.5a.6.6,0,0,1-.571.571.871.871,0,0,0-.871.871v.475h.3Zm-2.938-13.921a.6.6,0,0,1,.6-.571.877.877,0,0,0,.871-.877v-.5h-.3v.5a.6.6,0,0,1-.571.6.871.871,0,0,0-.871.871v.469h.3Zm.853,35.323a.6.6,0,0,1,.571-.6.871.871,0,0,0,.871-.871v-.5h-.282v.5a.6.6,0,0,1-.571.571.871.871,0,0,0-.871.871v.475h.3Zm18.728,2.878a.6.6,0,0,1,.571-.6.871.871,0,0,0,.871-.871v-.5h-.3v.523a.6.6,0,0,1-.571.571.871.871,0,0,0-.871.871v.475h.3Zm-17.31,24.033a.6.6,0,0,1,.571-.571.871.871,0,0,0,.871-.871v-.5h-.3v.493a.6.6,0,0,1-.6.571.871.871,0,0,0-.871.871v.475h.3Zm-13.26,6.363a.6.6,0,0,1,.571-.6.871.871,0,0,0,.871-.871v-.5h-.3v.5a.6.6,0,0,1-.571.571.871.871,0,0,0-.871.871v.475h.3Zm17.322,7.21a.6.6,0,0,1,.571-.571.871.871,0,0,0,.871-.871v-.5h-.3v.5a.6.6,0,0,1-.6.571.871.871,0,0,0-.871.871v.475h.3Zm19.521-23.961a.6.6,0,0,1,.571-.6.871.871,0,0,0,.871-.877v-.5h-.3v.5a.6.6,0,0,1-.571.6.871.871,0,0,0-.871.871v.469h.3Zm-7.967-23.5a.6.6,0,0,1,.811,0,.865.865,0,0,0,1.232,0l.336-.336-.216-.21-.33.336a.6.6,0,0,1-.811,0,.865.865,0,0,0-1.232,0l-.354.348.21.216ZM234.715,201.7a.6.6,0,0,1,.811,0,.889.889,0,0,0,1.2,0l.33-.336-.21-.21-.336.336a.6.6,0,0,1-.805,0,.865.865,0,0,0-1.232,0l-.354.348.21.216Zm-7.4,14.576a.6.6,0,0,1,.811,0,.865.865,0,0,0,1.232,0l.336-.336-.216-.21-.33.336a.6.6,0,0,1-.811,0,.865.865,0,0,0-1.232,0l-.354.348.216.216Zm3.2,15.147a.6.6,0,0,1,.805,0,.889.889,0,0,0,1.2,0l.336-.336-.21-.21-.336.33a.559.559,0,0,1-.805,0,.883.883,0,0,0-1.238,0l-.349.354.21.216ZM240.94,240.3a.6.6,0,0,1,.811,0,.9.9,0,0,0,1.232,0l.336-.336-.216-.21-.33.33a.6.6,0,0,1-.811,0,.877.877,0,0,0-1.232,0l-.354.354.216.21Zm3.917-25.511a.6.6,0,0,1,.811,0,.9.9,0,0,0,1.232,0l.33-.336-.21-.21-.33.33a.6.6,0,0,1-.811,0,.877.877,0,0,0-1.232,0l-.354.354.216.21Zm2.65,19.912a.6.6,0,0,1,.811,0,.871.871,0,0,0,1.232,0l.336-.336-.216-.21-.33.336a.6.6,0,0,1-.811,0,.889.889,0,0,0-1.2,0l-.379.33.216.216Zm11.121-1.244a.6.6,0,0,1,.805,0,.889.889,0,0,0,1.232,0l.336-.336-.21-.21-.336.336a.6.6,0,0,1-.805,0,.871.871,0,0,0-1.238,0l-.348.349.21.216Zm.889-18.668a.565.565,0,0,1,.811,0,.877.877,0,0,0,1.2,0l.33-.336-.21-.21-.33.33a.6.6,0,0,1-.811,0,.889.889,0,0,0-1.232,0l-.354.354.21.21Zm-4.807,6.008a.6.6,0,0,1,.805,0,.877.877,0,0,0,1.2,0l.336-.336-.21-.21-.336.33a.6.6,0,0,1-.805,0,.883.883,0,0,0-1.238,0l-.349.354.21.21Zm-16.583,4.578a.6.6,0,0,1,.811,0,.877.877,0,0,0,1.232,0l.336-.336-.216-.21-.33.33a.6.6,0,0,1-.811,0,.9.9,0,0,0-1.232,0l-.354.354.216.21Zm-15.255,2.085a.6.6,0,0,1,.805,0,.889.889,0,0,0,1.2,0l.336-.336-.21-.21-.336.336a.6.6,0,0,1-.805,0,.9.9,0,0,0-1.238,0l-.312.361.21.216Zm2.6,13.645a.6.6,0,0,1,.805,0,.877.877,0,0,0,1.232,0l.336-.336-.216-.21-.33.33a.565.565,0,0,1-.811,0,.877.877,0,0,0-1.2,0l-.355.354.216.21Zm-9.613-1.8a.6.6,0,0,1,.805,0,.877.877,0,0,0,1.2,0l.336-.336-.21-.21-.336.336a.6.6,0,0,1-.811,0,.865.865,0,0,0-1.232,0l-.348.348.21.216Zm5.8-37.288a.6.6,0,0,1,.805,0,.889.889,0,0,0,1.2,0l.336-.336-.21-.21-.336.336a.6.6,0,0,1-.811,0,.865.865,0,0,0-1.232,0l-.348.348.21.216Z" transform="translate(-158.098 -125.418)"/><path class="d" d="M283.565,238.961h-8.778L258,149.75c3.533,1.2,7.877,5.347,10.214,11.608.811,2.175,1.616,4.711,2.4,7.516h0c.036.138.072.276.114.415,2.325,8.346,4.548,18.968,6.465,29.393,1.088,5.894,2.079,11.728,2.938,17.046l.108.7C282.286,229.288,283.565,238.961,283.565,238.961Z" transform="translate(-175.159 -122.213)"/><path class="h" d="M302.473,255.146c1.088,2.451.493,6.573,2.475,6.339,1.76-.21,1.9-3.106,1.9-3.106s.9,3.317,2.734,2.547,1.334-3.971,1.334-3.971.631,2.794,2.4,1.893,1.851-3.7,1.851-3.7.727.673,1.694-.523c1.388-1.712.33-6.351-.8-8.646S309.112,236.13,308.18,235l-14.78,7.108s.126,5,.5,7.534,3.911,10.521,5.954,9.776-.553-6.345-.889-7.859-.042-1.845.637-1.28A29.161,29.161,0,0,1,302.473,255.146Z" transform="translate(-189.289 -156.242)"/><path class="d" d="M313.645,267.544c-.1-4.056-.841-5.81-3.052-9.133-.042-.066.042-.144.1-.078,2.457,3.052,3.707,5.125,3.148,9.217C313.837,267.736,313.645,267.736,313.645,267.544Z" transform="translate(-196.148 -165.546)"/><path class="d" d="M320.282,265.285a21.3,21.3,0,0,0-3.317-9.758c-.03-.054.054-.108.09-.06,2.319,3.413,3.521,5.5,3.437,9.764C320.487,265.423,320.306,265.478,320.282,265.285Z" transform="translate(-198.694 -164.404)"/><path class="d" d="M326.914,262.113a19.165,19.165,0,0,0-3.971-9.451.078.078,0,0,1,.114-.1,13.623,13.623,0,0,1,3.978,9.517C327.047,262.335,326.962,262.365,326.914,262.113Z" transform="translate(-201.078 -163.245)"/><path class="h" d="M265.6,156.3c11.416,11.854,29.008,43.392,31.069,47.7,1.4,2.926-13.885,10.659-14.54,8.532-.835-2.728-13.873-33.592-17.424-46.264C262.738,159.258,263.243,153.85,265.6,156.3Z" transform="translate(-177.35 -124.588)"/><path class="e" d="M258.114,155.824c.763,4.326,5.912,18.752,5.912,18.752l9.481-2.277.168-.036,6.038-1.442s-11.578-13.513-17-17.676S257.285,150.951,258.114,155.824Z" transform="translate(-175.044 -122.663)"/><path class="b" d="M274.388,174.027h-.475a.871.871,0,0,1-.871-.871.6.6,0,0,0-.6-.6h-.5v-.3h.5a.871.871,0,0,1,.871.871.6.6,0,0,0,.571.571h.475Zm-7.961-7.631a.6.6,0,0,1,.811,0,.889.889,0,0,0,1.232,0l.354-.354-.216-.21-.348.354a.6.6,0,0,1-.811,0,.865.865,0,0,0-1.232,0l-.336.33.216.216Zm-2.65,6.771a.6.6,0,0,1,.571-.571.871.871,0,0,0,.871-.871v-.5h-.3v.5a.6.6,0,0,1-.571.6.871.871,0,0,0-.871.871v.475h.3Zm-3.437-10.707a.565.565,0,0,1,.6-.571.871.871,0,0,0,.871-.871v-.5h-.3v.5a.6.6,0,0,1-.571.6.871.871,0,0,0-.871.871v.469h.3Z" transform="translate(-175.985 -126.512)"/><path class="h" d="M255.4,152.752c.12-.276-7.54,6.609-13.855,5.407-3.154-.6-3.749-7.637-3.377-7.709C243.476,149.375,248.517,146.479,255.4,152.752Z" transform="translate(-167.202 -121.85)"/><path class="h" d="M252.1,143.943c-.234.6-3.785,4.206-6.609,3.677-.919-.18-.168-5.245-.168-5.245l-.03-.391-.421-5.407,6.729-3.07.961-.4v6.068a34.51,34.51,0,0,1-.463,4.765Z" transform="translate(-169.918 -115.57)"/><path class="d" d="M252.575,136.451a10.881,10.881,0,0,1-7.294,5.534l-.421-5.407,6.729-3.07.961-.4S252.569,134.6,252.575,136.451Z" transform="translate(-169.914 -115.57)"/><path class="h" d="M234.65,116.746c-2.205,9.271,3.094,11.638,5.1,12.107,1.8.433,8.051,1.664,11.2-7.324s-.457-12.948-4.56-14.15S236.843,107.475,234.65,116.746Z" transform="translate(-165.628 -105.149)"/><path class="d" d="M238.172,120.95a6.01,6.01,0,0,0,.661,0,1.052,1.052,0,0,0,.661-.156.342.342,0,0,0,.072-.409.835.835,0,0,0-.787-.33,1.25,1.25,0,0,0-.835.306.361.361,0,0,0,.228.589Z" transform="translate(-167.12 -110.356)"/><path class="d" d="M248.335,122.9a5.4,5.4,0,0,1-.6-.24,1.093,1.093,0,0,1-.6-.36.336.336,0,0,1,.072-.409.835.835,0,0,1,.847-.06,1.2,1.2,0,0,1,.691.559.36.36,0,0,1-.409.511Z" transform="translate(-170.806 -111.033)"/><path class="d" d="M246.3,127.27s.042.042.036.066c-.138.637-.192,1.382.342,1.706v.03C245.984,128.844,246.05,127.847,246.3,127.27Z" transform="translate(-170.419 -113.239)"/><path class="d" d="M247.035,126.338c1.039.12.727,2.187-.234,2.085S246.164,126.242,247.035,126.338Z" transform="translate(-170.455 -112.866)"/><path class="d" d="M248.118,126.618c.162.144.306.379.523.433s.475-.126.667-.312h0c-.048.4-.264.781-.7.775s-.6-.4-.661-.811C247.98,126.66,248.052,126.558,248.118,126.618Z" transform="translate(-171.147 -112.972)"/><path class="d" d="M239.185,125.79s-.054,0-.054.048c-.072.649-.264,1.376-.871,1.5v.036C238.981,127.382,239.221,126.409,239.185,125.79Z" transform="translate(-167.279 -112.648)"/><path class="d" d="M238.337,124.528c-1.027-.228-1.4,1.8-.451,2.043S239.2,124.714,238.337,124.528Z" transform="translate(-166.912 -112.138)"/><path class="d" d="M237.5,124.438c-.18.084-.379.252-.6.228s-.354-.276-.463-.517H236.4a.826.826,0,0,0,.342.973c.342.144.649-.162.811-.535C237.609,124.529,237.573,124.408,237.5,124.438Z" transform="translate(-166.526 -111.994)"/><path class="d" d="M243.8,135.39a.969.969,0,0,1-.6.318,1.724,1.724,0,0,1-.673-.228l-.03.03a.859.859,0,0,0,.781.433.7.7,0,0,0,.565-.517.036.036,0,0,0-.042-.036Z" transform="translate(-168.972 -116.48)"/><path class="d" d="M240.1,126.691s-.288.931-.361,1.382c0,.042.1.084.252.114h0a2.163,2.163,0,0,0,2.211-.469c.036-.036,0-.09-.06-.072a3.257,3.257,0,0,1-2.049.246c0-.132.547-1.586.475-1.6a4.127,4.127,0,0,0-1.063.066c.541-1.965,1.394-3.827,1.9-5.792a.062.062,0,1,0-.114-.048,33.093,33.093,0,0,0-2.3,6.158C238.925,126.926,239.911,126.739,240.1,126.691Z" transform="translate(-167.572 -110.528)"/><path class="d" d="M240.81,132.6a2.7,2.7,0,0,0,.8,1.081,1.244,1.244,0,0,0,.691.24c.541,0,.685-.451.7-.877a2.836,2.836,0,0,0-.054-.673A3.437,3.437,0,0,1,240.81,132.6Z" transform="translate(-168.297 -115.275)"/><path class="j" d="M242.14,134.1a1.244,1.244,0,0,0,.691.24c.541,0,.685-.451.7-.877A1.238,1.238,0,0,0,242.14,134.1Z" transform="translate(-168.828 -115.699)"/><path class="d" d="M251.483,120.35c-1.063-.24-3.377-3.659-2.608-8.868a39.169,39.169,0,0,0-.132,5.468c.234.745-1.292-1.929-.727-6.134a17.178,17.178,0,0,1-4.668,1.52c-2.067.228-3.275,0-3.395-.156s2.944-.6,3.881-1.382c0,0-5.666,1.58-8.123,1.364-.282,0,.336-5.852,4.488-7.685s9.661,1.8,11,3.6c0,0,1.833.6,3.419,3.689S252.612,120.614,251.483,120.35Z" transform="translate(-166.238 -103.94)"/><path class="h" d="M258.775,130.514s2.493-2.638,3.719-1.706-.949,4.963-2.608,5.317a1.61,1.61,0,0,1-2.007-1.172Z" transform="translate(-175.111 -113.774)"/><path class="d" d="M262.4,130.838v.042a4.026,4.026,0,0,0-2.457,2.211.889.889,0,0,1,1.352-.048.036.036,0,0,1-.036.06.973.973,0,0,0-1.13.18,4.567,4.567,0,0,0-.649.793c-.066.09-.234,0-.18-.1h0C259.5,132.556,260.877,130.754,262.4,130.838Z" transform="translate(-175.675 -114.662)"/></g><g transform="translate(60.357 84.744)"><path class="k" d="M102,117.505c-3.2,7.811-12.017,39.318-6.255,60.63,5.047,18.584,16.769,28.305,22.087,31.454,7.811,4.626,16.144,7.564,15.808,9.325s-8.544-2.049-8.916-1.37,17.851,18.217,50.254,21.8c50.079,5.534,79.49-12.473,83.816-13.248s-16.337,24.189-31.508,30.042c-3.491,1.34,9.217-2.1,17.845-7.264,3.238-1.941-5.684,24.219-35.491,30.69-5.732,1.244,6.651,1.172,11.067.649s-12.756,11.848-57.4,8.291c-34.74-2.794-67.107-29.9-80.4-59.795-1.5-3.365-4.578-1.166-5.564-3.545-2.1-5.077-1.13-14.895-2.157-16.823s-4.4,0-5.407-5.143-.469-20.572,7.853-45.315c.985-2.932-.373-1.941-2.151.679s-3.881,4.951-5.864,4.855-.931-7.372,7.456-20.765C91.444,119.638,104.909,110.445,102,117.505Z" transform="translate(-65.891 -115.179)"/><path class="k" d="M181.1,292.077c.084-2.451,9.553-1.244,8.694,2.043S180.985,295.406,181.1,292.077Z" transform="translate(-110.736 -185.273)"/><path class="k" d="M328.2,385.981c.6,2.3,8.856.7,8.2-2.4S327.505,383.217,328.2,385.981Z" transform="translate(-169.438 -221.767)"/><path class="k" d="M65.762,200.054c-1.58-.2-2.662,3.2-.763,3.833S67.829,200.325,65.762,200.054Z" transform="translate(-63.99 -149.056)"/><path class="k" d="M388.937,293.076c1.2,1.544,9.469-3.527,6.038-5.93C392.584,285.464,387.747,291.532,388.937,293.076Z" transform="translate(-193.624 -183.707)"/><path class="l" d="M263.5,370.278l-3.281.607-.733,3.461-.733-3.461-3.287-.607,3.269-.8.751-3.269.745,3.269Z" transform="translate(-140.423 -215.383)"/><path class="l" d="M132.513,286.908l-3.281.607-.733,3.461-.733-3.461-3.287-.607,3.269-.8.751-3.269.745,3.269Z" transform="translate(-88.135 -182.104)"/><path class="l" d="M104.8,135.178l-3.281.607-.733,3.461-.733-3.461-3.281-.607,3.263-.8.751-3.269.745,3.269Z" transform="translate(-77.075 -121.538)"/><path class="l" d="M368.878,312.641l-1.839.342-.409,1.935-.409-1.935-1.833-.342,1.827-.445.415-1.827.421,1.827Z" transform="translate(-183.9 -193.093)"/><path class="l" d="M200.732,329.521l-1.833.342-.409,1.929-.409-1.929-1.833-.342,1.821-.445.421-1.827.421,1.827Z" transform="translate(-116.784 -199.831)"/><path class="l" d="M330.6,368.481l-1.833.342-.409,1.935-.415-1.935-1.833-.342,1.827-.445.421-1.827.415,1.827Z" transform="translate(-168.62 -215.383)"/><path class="l" d="M232.718,391.757l-1.833.336-.415,1.935-.409-1.935-1.833-.336,1.827-.451.415-1.827.421,1.827Z" transform="translate(-129.549 -224.672)"/><path class="l" d="M114.828,312.641l-1.839.342-.409,1.935-.409-1.935-1.833-.342,1.827-.445.415-1.827L113,312.2Z" transform="translate(-82.491 -193.093)"/><path class="l" d="M111.088,222.427l-1.833.336-.409,1.935-.409-1.935-1.839-.336,1.827-.451.421-1.827.415,1.827Z" transform="translate(-80.998 -157.08)"/><path class="l" d="M278.242,338.89a.535.535,0,1,0,.478.532.535.535,0,0,0-.478-.532Z" transform="translate(-149.322 -204.478)"/><path class="l" d="M90.682,172.28a.535.535,0,1,0,.478.532.535.535,0,0,0-.478-.532Z" transform="translate(-74.454 -137.972)"/><path class="l" d="M333.882,341.27a.535.535,0,1,0,.478.532A.535.535,0,0,0,333.882,341.27Z" transform="translate(-171.531 -205.428)"/><path class="l" d="M96.452,296.34a.535.535,0,1,0,.478.532A.535.535,0,0,0,96.452,296.34Z" transform="translate(-76.757 -187.493)"/><path class="l" d="M75.36,242.17a.379.379,0,1,0,.331.376A.379.379,0,0,0,75.36,242.17Z" transform="translate(-68.396 -165.87)"/><path class="l" d="M215.1,355a.379.379,0,1,0,.331.376A.379.379,0,0,0,215.1,355Z" transform="translate(-124.176 -210.908)"/><path class="l" d="M153.35,352.75a.379.379,0,1,0,.331.376A.379.379,0,0,0,153.35,352.75Z" transform="translate(-99.527 -210.01)"/><path class="l" d="M259.1,347.6a1.021,1.021,0,1,0,.943,1.018,1.021,1.021,0,0,0-.943-1.018Z" transform="translate(-141.496 -207.954)"/><path class="l" d="M160.963,347a1.021,1.021,0,1,0,.943,1.018,1.021,1.021,0,0,0-.943-1.018Z" transform="translate(-102.322 -207.715)"/></g><g transform="translate(114.471 42.416)"><path class="i" d="M160.511,219.181a3.257,3.257,0,1,1-2.59-3.809A3.257,3.257,0,0,1,160.511,219.181Z" transform="translate(-154.055 -112.821)"/><rect class="i" width="2.487" height="16.367" transform="translate(7.067 89.785) rotate(10.77)"/><path class="i" d="M179.21,214.715a3.257,3.257,0,1,1-2.59-3.8A3.257,3.257,0,0,1,179.21,214.715Z" transform="translate(-161.519 -111.041)"/><rect class="i" width="2.487" height="16.367" transform="translate(18.305 87.101) rotate(10.77)"/><path class="i" d="M179.233,189.091l-14.083,4.332.409-2.145,14.083-4.338Z" transform="translate(-158.484 -101.496)"/><path class="i" d="M177.953,195.831l-14.083,4.332.409-2.145,14.083-4.338Z" transform="translate(-157.973 -104.186)"/><path class="m" d="M394.092,75.783a3.25,3.25,0,1,1-.5-2.45,3.256,3.256,0,0,1,.5,2.45Z" transform="translate(-247.294 -55.577)"/><rect class="m" width="2.487" height="16.367" transform="translate(147.422 3.636) rotate(10.77)"/><rect class="m" width="2.487" height="4.729" transform="translate(156.504 1.08) rotate(10.77)"/><path class="m" d="M410.558,46.881,398.74,50.5l.409-2.145,11.818-3.629Z" transform="translate(-251.726 -44.73)"/><path class="m" d="M409.278,53.621,397.46,57.25l.409-2.151,11.818-3.629Z" transform="translate(-251.215 -47.42)"/></g><g transform="translate(223.475 126.481)"><path class="e" d="M383.526,223.99c-4.7,10.388-12.269,10.16-14.348,12.666a52.269,52.269,0,0,0-3.2,5.059l-11.272-3.6a51.829,51.829,0,0,0,.318-5.978c-.234-3.244-6.543-7.444-4.35-18.626,1.43-7.354,10.334-16.823,22.231-13.038S386.615,217.164,383.526,223.99Z" transform="translate(-341.358 -190.617)"/><rect class="b" width="19.149" height="0.601" transform="matrix(0.125, -0.992, 0.992, 0.125, 15.672, 49.105)"/><rect class="b" width="19.149" height="0.601" transform="translate(21.26 50.786) rotate(-61.68)"/><path class="b" d="M370.705,242.758a1.8,1.8,0,0,1-.6-.084c-.883-.282-1.55-1.268-1.881-2.776a.359.359,0,0,0-.042-.2,1.436,1.436,0,0,1-1.136.216c-1.688-.541-1.256-4.236-1.238-4.392l.3.036c0,.036-.427,3.6,1.027,4.068a1.2,1.2,0,0,0,.991-.258c-.246-1.694-.036-3.737.745-4.452a.919.919,0,0,1,.931-.2c.739.234.979.967.649,2a6.237,6.237,0,0,1-1.995,2.806,1.486,1.486,0,0,0,.06.318c.18.811.631,2.223,1.676,2.554a2.678,2.678,0,0,0,2.481-.919c.072-.066.15-.138.222-.216a4.885,4.885,0,0,1-.072-3.341c.4-1.256,1.118-1.881,1.881-1.64a.853.853,0,0,1,.571.667c.222,1.027-.715,3-2.025,4.38a1.755,1.755,0,0,0,.985.829c1.033.33,2.734-1.845,3.3-2.71l.246.162c-.084.138-2.181,3.3-3.641,2.836a2.031,2.031,0,0,1-1.106-.9l-.168.156A3.545,3.545,0,0,1,370.705,242.758Zm3.725-6.237c-.6,0-1.045.763-1.274,1.478a4.873,4.873,0,0,0,0,3c1.2-1.3,2.067-3.124,1.869-4.032a.535.535,0,0,0-.373-.439.715.715,0,0,0-.24-.012Zm-4.885-1.562a.6.6,0,0,0-.427.174c-.6.565-.9,2.343-.673,4.032a6.009,6.009,0,0,0,1.76-2.548c.162-.5.312-1.382-.457-1.628a.842.842,0,0,0-.246-.03Z" transform="translate(-347.559 -204.609)"/><rect class="f" width="14.6" height="2.854" transform="matrix(0.953, 0.304, -0.304, 0.953, 12.17, 46.61)"/><rect class="f" width="14.6" height="2.854" transform="matrix(0.953, 0.304, -0.304, 0.953, 11.156, 49.765)"/><rect class="f" width="14.6" height="2.854" transform="matrix(0.953, 0.304, -0.304, 0.953, 10.147, 52.925)"/><rect class="c" width="4.735" height="0.601" transform="matrix(0.304, -0.953, 0.953, 0.304, 32.582, 5.127)"/><rect class="c" width="0.601" height="4.735" transform="translate(20.216 0.128) rotate(-12.29)"/><rect class="c" width="0.601" height="4.735" transform="translate(7.998 6.56) rotate(-42.3)"/><rect class="c" width="0.601" height="4.735" transform="matrix(0.304, -0.953, 0.953, 0.304, 0.655, 18.295)"/><rect class="c" width="4.735" height="0.601" transform="translate(0 31.517) rotate(-12.29)"/><rect class="c" width="0.601" height="4.735" transform="translate(40.708 42.641) rotate(-42.29)"/><rect class="c" width="0.601" height="4.735" transform="matrix(0.304, -0.953, 0.953, 0.304, 47.011, 33.169)"/><rect class="c" width="4.735" height="0.601" transform="translate(47.584 21.194) rotate(-12.29)"/><rect class="c" width="4.735" height="0.601" transform="translate(42.236 11.165) rotate(-42.35)"/></g></g></svg>