<svg xmlns="http://www.w3.org/2000/svg" width="52.905" height="52.905" viewBox="0 0 52.905 52.905"><defs><style>.a{fill:#ec4f1b;}</style></defs><path class="a" d="M25.346,24.887l-1.3-1.3-5.916-5.916-3.7-3.7L5.723,5.264,3.054,2.595,0,5.649l4.834,4.834L4.81,51.34l9.619-9.619H36.071L49.851,55.5,52.9,52.446,42.18,41.72,25.346,24.887ZM19.238,32.1h-4.81v-4.81h4.81Zm-4.81-7.214v-4.81l4.81,4.81ZM48.1,3.244H9.811L24.048,17.48V12.863H43.286v4.81H24.24l2.4,2.4H43.286v4.81H31.454L48.264,41.7A4.8,4.8,0,0,0,52.9,36.911V8.054A4.824,4.824,0,0,0,48.1,3.244Z" transform="translate(0 -2.595)"/></svg>