<svg xmlns="http://www.w3.org/2000/svg" width="101.138" height="41.947" viewBox="0 0 101.138 41.947"><defs><style>.c{fill:#ec4f1b;fill-rule:evenodd;}</style></defs><g class="a" transform="translate(-707.203 -3920.09)"><g class="b" transform="translate(707.203 3920.09)"><path class="c" d="M10.569,19.536C8.389,18.73,7.2,18.1,7.2,17.117c0-.836.687-1.314,1.911-1.314a14.687,14.687,0,0,1,6.12,1.642l.9-5.523A17.21,17.21,0,0,0,8.748,10.34a9.449,9.449,0,0,0-6.09,1.881A6.691,6.691,0,0,0,.3,17.595c0,4.06,2.478,5.792,6.509,7.255,2.6.925,3.463,1.582,3.463,2.6,0,.985-.836,1.552-2.359,1.552A16.445,16.445,0,0,1,.9,26.88L0,32.463a18.2,18.2,0,0,0,8.3,2,10.132,10.132,0,0,0,6.359-1.821A6.932,6.932,0,0,0,17.2,26.88c0-4.15-2.538-5.882-6.628-7.344Zm21.209-3.254.9-5.493H27.945V4.119L21.587,5.165l-.918,5.622-2.236.363L17.6,16.281H20.66V27.059c0,2.806.717,4.747,2.179,5.941,1.224.985,2.985,1.463,5.464,1.463a13.748,13.748,0,0,0,3.881-.537V28.1a10.187,10.187,0,0,1-2.15.328c-1.463,0-2.09-.746-2.09-2.448v-9.7Zm14.2-5.814a4.416,4.416,0,0,0-4.419,3.068l-.448-2.747H34.632V34.015h7.4V18.938a4.773,4.773,0,0,1,4.03-1.545,7.093,7.093,0,0,1,1.314.09V10.646A6.031,6.031,0,0,0,45.977,10.467ZM52.9,8.489a3.911,3.911,0,1,0-3.911-3.911A3.9,3.9,0,0,0,52.9,8.489Zm-3.732,2.3h7.434V34.015H49.172Zm28.5,2.09a6.5,6.5,0,0,0-5.464-2.538,7.708,7.708,0,0,0-5.792,2.777l-.388-2.329H59.52V42.614l7.4-1.224V33.926a11.312,11.312,0,0,0,3.344.537A8.833,8.833,0,0,0,76.9,31.717c2-2.18,3.015-5.553,3.015-10,0-3.941-.747-6.926-2.239-8.837Zm-6.15,14.331a2.907,2.907,0,0,1-2.6,1.732,4.381,4.381,0,0,1-2-.448V17.446a4.029,4.029,0,0,1,2.806-1.463c1.881,0,2.806,2.03,2.806,6a10.729,10.729,0,0,1-1.015,5.225Zm29.617-5.016c0-3.7-.806-6.628-2.389-8.688a8.507,8.507,0,0,0-7.105-3.165c-6.3,0-10.211,4.657-10.211,12.121,0,4.18,1.045,7.315,3.1,9.315,1.851,1.791,4.508,2.687,7.942,2.687a15,15,0,0,0,7.942-1.97l-.806-5.075a13.141,13.141,0,0,1-6.329,1.523,4.523,4.523,0,0,1-3.135-.926,4.66,4.66,0,0,1-1.373-3.254h12.271C101.079,24.4,101.138,22.73,101.138,22.193Zm-12.42-1.97c.209-3.314,1.1-4.866,2.806-4.866,1.672,0,2.538,1.582,2.657,4.866Z" transform="translate(0 -0.667)"/></g></g></svg>